<?xml version="1.0" encoding="utf-8"?>
<!-- Generator: Adobe Illustrator 25.2.1, SVG Export Plug-In . SVG Version: 6.00 Build 0)  -->
<svg version="1.1" id="Layer_1" xmlns="http://www.w3.org/2000/svg" xmlns:xlink="http://www.w3.org/1999/xlink" x="0px" y="0px"
	 viewBox="0 0 64 64" style="enable-background:new 0 0 64 64;" xml:space="preserve">
<style type="text/css">
	.st0{fill:#46244C;}
</style>
<path class="st0" d="M12.7,21.9v29.2H8.9V21.9H2v-3.4h18v3.4H12.7z"/>
<path class="st0" d="M26.3,21.9V27h7.2v3.3h-7.2v6.5h9.8v3.4H22.5V18.5h13.8v3.4H26.3z"/>
<path class="st0" d="M51.7,51l-6.8-19.8c-0.6,0-1.4,0-2.4-0.1v20h-4V18.5c0.2,0,1.1,0,2.5-0.1c1.5-0.1,2.6-0.1,3.5-0.1
	c5.5,0,8.3,2.1,8.3,6.4c0,1.3-0.4,2.5-1.1,3.5c-0.8,1.1-1.7,1.8-2.9,2.2L56.2,51H51.7z M42.5,21.8v6c0.7,0.1,1.3,0.1,1.6,0.1
	c1.6,0,2.8-0.2,3.5-0.7c0.7-0.5,1.1-1.3,1.1-2.6c0-1.1-0.4-1.8-1.2-2.2c-0.8-0.4-2.1-0.6-3.8-0.6C43.4,21.7,43,21.8,42.5,21.8z"/>
<path class="st0" d="M57.1,51.1V18.5h3.8v32.6H57.1z"/>
<polyline class="st0" points="22.5,43.3 36.2,43.3 36.2,46.7 22.5,46.7 "/>
</svg>
