<?xml version="1.0" encoding="utf-8"?>
<!-- Generator: Adobe Illustrator 25.2.1, SVG Export Plug-In . SVG Version: 6.00 Build 0)  -->
<svg version="1.1" id="Layer_1" xmlns="http://www.w3.org/2000/svg" xmlns:xlink="http://www.w3.org/1999/xlink" x="0px" y="0px"
	 viewBox="0 0 208.4 61.2" style="enable-background:new 0 0 208.4 61.2;" xml:space="preserve">
<style type="text/css">
	.st0{fill:#231F20;}
</style>
<rect y="54.2" class="st0" width="208.4" height="7"/>
<path d="M13.3,27.9v21.9H8.8V27.9H0.5v-4.1H22v4.1H13.3z"/>
<path d="M29.6,27.9V34h8.6v3.9h-8.6v7.8h11.8v4.1H25v-26h16.6v4.1H29.6z"/>
<path d="M58.8,49.7L51.8,39c-0.7,0-1.7,0-2.9-0.1v10.8h-4.8V23.8c0.3,0,1.3,0,3-0.1c1.7-0.1,3.1-0.1,4.2-0.1c6.6,0,9.9,2.5,9.9,7.6
	c0,1.5-0.5,3-1.4,4.2c-0.8,1.2-2,2.1-3.4,2.7l7.7,11.7L58.8,49.7z M48.9,27.8V35c0.8,0.1,1.5,0.1,1.9,0.1c1.5,0.1,2.9-0.2,4.2-0.8
	c0.9-0.5,1.3-1.6,1.3-3.2C56.5,30,56,29,55,28.4c-1.4-0.6-3-0.9-4.5-0.8C50,27.7,49.4,27.7,48.9,27.8z"/>
<path d="M66.4,49.7V23.8H71v25.9H66.4z"/>
<path d="M91.7,49.7V23.8h4.6v21.9H108v4.1L91.7,49.7z"/>
<path d="M127.6,49.7l-1.9-5.3h-8.9l-1.8,5.3h-5.1l10.3-26.3h2l10.4,26.3H127.6z M121.2,31.4l-3.1,9.6h6.2L121.2,31.4z"/>
<path d="M152.4,50.1l-12.6-16.4v16.1h-4.4v-26h2.2l12.2,15.7V23.8h4.4v26.3H152.4z"/>
<path d="M158.2,49.7V23.8h4.6v25.9H158.2z"/>
<path d="M172.1,27.9V34h8.6v3.9h-8.6v7.8h11.8v4.1h-16.4v-26h16.6v4.1H172.1z"/>
<path d="M202.1,49.7L195.1,39c-0.7,0-1.7,0-2.9-0.1v10.8h-4.8V23.8c0.3,0,1.3,0,3-0.1s3.1-0.1,4.2-0.1c6.6,0,9.9,2.5,9.9,7.6
	c0,1.5-0.5,3-1.4,4.2c-0.9,1.2-2.1,2.1-3.4,2.7l7.7,11.7L202.1,49.7z M192.2,27.8V35c0.9,0.1,1.5,0.1,2,0.1c1.5,0.1,2.9-0.2,4.2-0.8
	c0.9-0.5,1.3-1.6,1.3-3.2c0.1-1.1-0.5-2.2-1.4-2.7c-1.4-0.6-3-0.9-4.6-0.8C193.2,27.7,192.7,27.7,192.2,27.8z"/>
<path d="M25,25.9V0h4.6v25.9H25z"/>
<path d="M66.4,25.9V0H71v25.9H66.4z"/>
<path d="M167.5,25.9V0h4.6v25.9H167.5z"/>
<path d="M158.2,25.9V0h4.6v25.9H158.2z"/>
<circle class="st0" cx="56.4" cy="7.6" r="7.6"/>
<circle class="st0" cx="199.7" cy="7.6" r="7.6"/>
</svg>
